<?xml version="1.0" encoding="UTF-8"?>
<svg id="Layer_1" data-name="Layer 1" xmlns="http://www.w3.org/2000/svg" viewBox="0 0 261.83 85.75">
  <defs>
    <style>
      .cls-1, .cls-2 {
        fill: #8cd867;
        opacity: .15;
      }

      .cls-2, .cls-3, .cls-4 {
        fill-rule: evenodd;
      }

      .cls-5 {
        fill: none;
        stroke: #8cd867;
        stroke-miterlimit: 2.61;
        stroke-width: .5px;
      }

      .cls-3 {
        fill: #45b175;
      }

      .cls-4 {
        fill: #fff;
      }
    </style>
  </defs>
  <path class="cls-2" d="m89.8,28.79h-5.37v11.79h5.44v25.42h11.72v-25.42h12.62v11.08c0,7.92,6.42,14.33,14.33,14.33h3.74v-11.79h-3.74c-1.4,0-2.54-1.14-2.54-2.54v-11.08h6.28v-11.79h-6.28v-9.88h-11.15v6.42c0,1.91-1.55,3.46-3.46,3.46h-9.8c0-3.35,2.72-6.07,6.07-6.07v-11.79c-9.86,0-17.86,8-17.86,17.86"/>
  <path class="cls-2" d="m154.71,27.94c-10.76,0-19.49,8.72-19.49,19.49s8.72,19.49,19.49,19.49,19.49-8.72,19.49-19.49-8.72-19.49-19.49-19.49m44.44,12.64v25.42h11.72v-25.42h7.48v-11.79h-7.48c0-3.35,2.72-6.07,6.07-6.07v-11.79c-9.86,0-17.86,8-17.86,17.86h-7.39c0-3.35,2.72-6.07,6.07-6.07v-11.79c-9.86,0-17.86,8-17.86,17.86h-5.37v11.79h5.44v25.42h11.72v-25.42h7.46Zm-44.44-.85c4.25,0,7.7,3.45,7.7,7.7s-3.45,7.7-7.7,7.7-7.7-3.45-7.7-7.7,3.45-7.7,7.7-7.7Z"/>
  <polygon class="cls-2" points="50.56 66 79.29 66 79.29 54.21 62.35 54.21 62.35 14.39 50.56 14.39 50.56 54.21 50.56 66 50.56 66"/>
  <rect class="cls-1" x="67.5" y="28.79" width="11.79" height="20.27"/>
  <path class="cls-5" d="m87.27,34.89h-5.37v11.79h5.44v25.42h11.72v-25.42h12.62v11.08c0,7.92,6.42,14.33,14.33,14.33h3.74v-11.79h-3.74c-1.4,0-2.54-1.14-2.54-2.54v-11.08h6.28v-11.79h-6.28v-9.88h-11.15v6.42c0,1.91-1.55,3.46-3.46,3.46h-9.8c0-3.35,2.72-6.07,6.07-6.07v-11.79c-9.86,0-17.86,8-17.86,17.86Z"/>
  <path class="cls-5" d="m152.18,34.04c-10.76,0-19.49,8.72-19.49,19.49s8.72,19.49,19.49,19.49,19.49-8.72,19.49-19.49-8.72-19.49-19.49-19.49Zm44.44,12.64v25.42h11.72v-25.42h7.48v-11.79h-7.48c0-3.35,2.72-6.07,6.07-6.07v-11.79c-9.86,0-17.86,8-17.86,17.86h-7.39c0-3.35,2.72-6.07,6.07-6.07v-11.79c-9.86,0-17.86,8-17.86,17.86h-5.37v11.79h5.44v25.42h11.72v-25.42h7.46Zm-44.44-.85c4.25,0,7.7,3.45,7.7,7.7s-3.45,7.7-7.7,7.7-7.7-3.45-7.7-7.7,3.45-7.7,7.7-7.7Z"/>
  <polygon class="cls-5" points="48.02 72.1 76.75 72.1 76.75 60.31 59.82 60.31 59.82 20.49 48.02 20.49 48.02 60.31 48.02 72.1 48.02 72.1"/>
  <rect class="cls-5" x="64.96" y="34.89" width="11.79" height="20.27"/>
  <path class="cls-4" d="m64.96,51.59h11.79v-20.27h-11.79v20.27Zm-5.15,5.15V16.92h-11.79v51.61h0s28.73,0,28.73,0v-11.79h-16.94Z"/>
  <path class="cls-4" d="m87.27,31.32h-5.37v11.79h5.44v25.42h11.72v-25.42h12.62v11.08c0,7.92,6.42,14.33,14.33,14.33h3.74v-11.79h-3.74c-1.4,0-2.54-1.14-2.54-2.54v-11.08h6.28v-11.79h-6.28v-9.88h-11.15v6.42c0,1.91-1.55,3.46-3.46,3.46h-9.8c0-3.35,2.72-6.07,6.07-6.07v-11.79c-9.86,0-17.86,8-17.86,17.86"/>
  <path class="cls-3" d="m152.18,30.48c-10.76,0-19.49,8.72-19.49,19.49s8.72,19.49,19.49,19.49,19.49-8.72,19.49-19.49-8.72-19.49-19.49-19.49m44.44,12.64v25.42h11.72v-25.42h7.48v-11.79h-7.48c0-3.35,2.72-6.07,6.07-6.07v-11.79c-9.86,0-17.86,8-17.86,17.86h-7.39c0-3.35,2.72-6.07,6.07-6.07v-11.79c-9.86,0-17.86,8-17.86,17.86h-5.37v11.79h5.44v25.42h11.72v-25.42h7.46Zm-44.44-.85c4.25,0,7.7,3.45,7.7,7.7s-3.45,7.7-7.7,7.7-7.7-3.45-7.7-7.7,3.45-7.7,7.7-7.7Z"/>
  <polygon class="cls-4" points="76.75 24.12 64.96 31.32 64.96 16.92 76.75 24.12"/>
</svg>